<svg id="Layer_1" data-name="Layer 1" xmlns="http://www.w3.org/2000/svg" viewBox="0 0 1081 1081"><defs><style>.cls-1{fill:#013220;}.cls-2{fill:#00ff9d;}</style></defs><title>Artboard 126 copy</title><rect class="cls-1" x="0.5" y="0.5" width="1080" height="1080"/><path class="cls-2" d="M288.82,511.66q6.29,0,9.61,2.38t3.33,8.42a18.63,18.63,0,0,1-.47,4.49,5.61,5.61,0,0,1-1.7,2.92,7.39,7.39,0,0,1-2.26,1.44c-.69.26-1.66.55-2.92.88q5.08.82,7,2.58t1.94,6.72q0,7-3.36,9.51t-10.58,2.55H251a1.94,1.94,0,0,1-1.94-1.94v-38a1.94,1.94,0,0,1,1.94-1.94Zm.06,12.68c0-1.42-.4-2.36-1.22-2.82a7.53,7.53,0,0,0-3.61-.69H263.76a1.94,1.94,0,0,0-1.94,1.94v3.4a1.94,1.94,0,0,0,1.94,1.94h20a8.28,8.28,0,0,0,3.8-.69C288.45,527,288.88,525.93,288.88,524.34Zm1.7,15.64a3.3,3.3,0,0,0-1.1-2.64c-.73-.62-2.17-.94-4.3-.94H263.76a1.94,1.94,0,0,0-1.94,1.94v3.78a1.94,1.94,0,0,0,1.94,1.94H285a14.3,14.3,0,0,0,3.89-.47C290,543.28,290.58,542.08,290.58,540Z"/><path class="cls-2" d="M373.48,535.59V538q0,9.81-5.12,12.91t-15.79,3.11L342.14,554a69.52,69.52,0,0,1-12.68-.88,11.4,11.4,0,0,1-7.1-4.46q-2.7-3.58-2.7-11.24V513.66a1.94,1.94,0,0,1,1.94-1.94h8.87a1.94,1.94,0,0,1,1.94,1.94v20q0,6.29,1.5,8.16t7.6,1.89l5.72.06,5.27-.06q5.22,0,6.69-1.64t1.48-6.59v-21.8a1.94,1.94,0,0,1,1.94-1.94h8.93a1.94,1.94,0,0,1,1.94,1.94Z"/><path class="cls-2" d="M429.69,511.66q7.55,0,10.77,2.92t3.24,10.33a31.68,31.68,0,0,1-.32,4.83,9.11,9.11,0,0,1-1.25,3.49,6.51,6.51,0,0,1-2.2,2.2l-.07,0a2,2,0,0,0,.08,3.48,6.84,6.84,0,0,1,1.18.76q2.07,1.66,2.07,5.81v6.1a1.94,1.94,0,0,1-1.94,1.94H432.2a1.94,1.94,0,0,1-1.94-1.94v-2.08a17.83,17.83,0,0,0-.54-4.9c-.35-1.22-2-1.82-5-1.82H405.38a1.94,1.94,0,0,0-1.94,1.94v6.86a1.94,1.94,0,0,1-1.94,1.94h-8.87a1.94,1.94,0,0,1-1.94-1.94v-38a1.94,1.94,0,0,1,1.94-1.94Zm-5.34,21q4.33,0,5.4-1.06c.72-.72,1.07-2.31,1.07-4.78a8.42,8.42,0,0,0-.41-3.07,2.41,2.41,0,0,0-1.69-1.39,11.54,11.54,0,0,0-2.11-.44c-.54,0-1.19-.06-1.94-.06H405.38a1.94,1.94,0,0,0-1.94,1.94v6.92a1.94,1.94,0,0,0,1.94,1.94h19Z"/><path class="cls-2" d="M497,552.82,475.85,526.4a1.94,1.94,0,0,0-3.45,1.21v24a1.94,1.94,0,0,1-1.94,1.94h-8.12a1.94,1.94,0,0,1-1.94-1.94v-38a1.94,1.94,0,0,1,1.94-1.94h17.43a1.93,1.93,0,0,1,1.51.72l21.2,26.38a1.94,1.94,0,0,0,3.45-1.21V513.6a1.94,1.94,0,0,1,1.95-1.94H516a1.94,1.94,0,0,1,1.94,1.94v38a1.94,1.94,0,0,1-1.94,1.94H498.54A2,2,0,0,1,497,552.82Z"/><path class="cls-2" d="M581.86,513.6v5.66a1.94,1.94,0,0,1-1.94,1.94H549.83a1.94,1.94,0,0,0-1.94,1.94v3.28a1.94,1.94,0,0,0,1.94,1.94h27.83a1.94,1.94,0,0,1,1.94,1.94v4.41a1.94,1.94,0,0,1-1.94,1.94H549.83a1.94,1.94,0,0,0-1.94,1.94v3.53a1.94,1.94,0,0,0,1.94,1.94h30.09a1.94,1.94,0,0,1,1.94,1.94v5.61a1.94,1.94,0,0,1-1.94,1.94H537.08a1.94,1.94,0,0,1-1.94-1.94v-38a1.94,1.94,0,0,1,1.94-1.94h42.84A1.94,1.94,0,0,1,581.86,513.6Z"/><path class="cls-2" d="M636.57,511.66q7.53,0,10.77,2.92t3.23,10.33a31.82,31.82,0,0,1-.31,4.83,9,9,0,0,1-1.26,3.49,6.51,6.51,0,0,1-2.2,2.2l-.06,0a2,2,0,0,0,.08,3.48,7.25,7.25,0,0,1,1.18.76q2.07,1.66,2.07,5.81v6.1a1.94,1.94,0,0,1-1.94,1.94h-9.06a1.94,1.94,0,0,1-1.94-1.94v-2.08a18.29,18.29,0,0,0-.53-4.9c-.36-1.22-2-1.82-5-1.82H612.26a1.94,1.94,0,0,0-2,1.94v6.86a1.94,1.94,0,0,1-1.94,1.94h-8.86a1.94,1.94,0,0,1-2-1.94v-38a1.94,1.94,0,0,1,2-1.94Zm-5.34,21q4.34,0,5.4-1.06c.71-.72,1.07-2.31,1.07-4.78a8.64,8.64,0,0,0-.41-3.07,2.42,2.42,0,0,0-1.7-1.39,11.64,11.64,0,0,0-2.1-.44c-.55,0-1.19-.06-2-.06H612.26a1.94,1.94,0,0,0-2,1.94v6.92a1.94,1.94,0,0,0,2,1.94h19Z"/><path class="cls-2" d="M723.24,511.66q9.48,0,13.15,3.07t3.68,12.38q0,8.79-2.86,12.4t-12,3.61H704a1.94,1.94,0,0,0-1.94,1.94v6.55a1.94,1.94,0,0,1-1.94,1.94h-8.87a1.94,1.94,0,0,1-1.94-1.94v-38a1.94,1.94,0,0,1,1.94-1.94Zm4,15.89q0-3.52-1.51-4.62t-5.27-1.1H704a1.94,1.94,0,0,0-1.94,1.94V531A1.94,1.94,0,0,0,704,533H720.6c2.43,0,4.13-.35,5.12-1S727.19,529.77,727.19,527.55Z"/><path class="cls-2" d="M782.33,511.22l10.18.06q11.18,0,15.29,3.71t4.11,14.82v2q0,13.06-3.26,17.49t-16.52,4.42l-9.61.19-4,.07-8.66-.32q-7.29,0-11.25-3.29t-4-10.65l-.13-7.72q0-12.75,3.27-16.68t15.51-3.92Zm-6.9,32.34,6.84.13,6.53-.07c3.6,0,6.19-.38,7.76-1.16s2.35-2.7,2.35-5.76L799,531a30.37,30.37,0,0,0-.35-4.95,5.13,5.13,0,0,0-1.41-3,5.91,5.91,0,0,0-3.17-1.29,30.31,30.31,0,0,0-4.49-.32l-12.69.07a18.94,18.94,0,0,0-6.59.88,4.18,4.18,0,0,0-2.61,3.75,40.89,40.89,0,0,0-.34,4.75v2.84q0,5.79,1.35,7.81T775.43,543.56Z"/><path class="cls-2" d="M828.24,551.61v-38a1.94,1.94,0,0,1,1.94-1.94h8.87A1.94,1.94,0,0,1,841,513.6v38a1.94,1.94,0,0,1-1.94,1.94h-8.87A1.94,1.94,0,0,1,828.24,551.61Z"/><path class="cls-2" d="M894.76,552.82,873.59,526.4a1.94,1.94,0,0,0-3.46,1.21v24a1.94,1.94,0,0,1-1.94,1.94h-8.11a1.94,1.94,0,0,1-1.94-1.94v-38a1.94,1.94,0,0,1,1.94-1.94h17.43a1.94,1.94,0,0,1,1.51.72l21.2,26.38a1.94,1.94,0,0,0,3.45-1.21V513.6a1.94,1.94,0,0,1,1.94-1.94h8.12a1.94,1.94,0,0,1,1.94,1.94v38a1.94,1.94,0,0,1-1.94,1.94H896.27A1.93,1.93,0,0,1,894.76,552.82Z"/><path class="cls-2" d="M947.76,551.61V524.09a1.94,1.94,0,0,0-1.94-1.94H931A1.94,1.94,0,0,1,929,520.2v-6.6a1.94,1.94,0,0,1,1.94-1.94h46.24a1.94,1.94,0,0,1,1.94,1.94v6.6a1.94,1.94,0,0,1-1.94,1.95H962.45a1.94,1.94,0,0,0-1.94,1.94v27.52a1.94,1.94,0,0,1-1.94,1.94H949.7A1.94,1.94,0,0,1,947.76,551.61Z"/><path class="cls-2" d="M211.12,574a23.53,23.53,0,0,0-1-4.31,8.5,8.5,0,0,0-6.8-5.74l-24.9-3.87a8.4,8.4,0,0,0-8.06,3.21l-.11.15a7.86,7.86,0,0,1-10.39,2.25,70.2,70.2,0,0,1-13.56-10.48l0-.06a69.5,69.5,0,0,1-10.8-13.84,7.9,7.9,0,0,1,2.18-10.46l.24-.18a8.35,8.35,0,0,0,3.18-8.09l-4-24.9A8.46,8.46,0,0,0,131.3,491a22.7,22.7,0,0,0-4.16-.91,22.39,22.39,0,0,0-2.76-.16h0a22.54,22.54,0,0,0-22.53,20.45c.14,2.93.41,5.83.82,8.63a93.9,93.9,0,0,0,79.56,79.54,85.56,85.56,0,0,0,8.63.82A22.72,22.72,0,0,0,211.12,574Zm-20.3,24.62c-2.86-.14-5.72-.41-8.51-.82a93.21,93.21,0,0,1-79-79c-.4-2.78-.68-5.66-.81-8.52a21.85,21.85,0,0,1,21.84-19.78h0a23.25,23.25,0,0,1,2.68.16,22.32,22.32,0,0,1,4,.89,7.77,7.77,0,0,1,5.3,6.2l4,24.9a7.69,7.69,0,0,1-2.91,7.44l-.23.17a8.55,8.55,0,0,0-2.37,11.35,70.45,70.45,0,0,0,10.85,13.94l0,.09.09,0a70.7,70.7,0,0,0,13.67,10.56,8.57,8.57,0,0,0,11.34-2.49l.07-.09a7.68,7.68,0,0,1,7.39-2.94l24.9,3.86a7.82,7.82,0,0,1,6.26,5.29,21.84,21.84,0,0,1,.91,4.17,21.3,21.3,0,0,1,.17,2.68A21.85,21.85,0,0,1,190.82,598.64Z"/><path class="cls-2" d="M210.6,576.78a21.85,21.85,0,0,1-19.78,21.86c-2.86-.14-5.72-.41-8.51-.82a93.21,93.21,0,0,1-79-79c-.4-2.78-.68-5.66-.81-8.52a21.85,21.85,0,0,1,21.84-19.78h0a23.25,23.25,0,0,1,2.68.16,22.32,22.32,0,0,1,4,.89,7.77,7.77,0,0,1,5.3,6.2l4,24.9a7.69,7.69,0,0,1-2.91,7.44l-.23.17a8.55,8.55,0,0,0-2.37,11.35,70.45,70.45,0,0,0,10.85,13.94l0,.09.09,0a70.7,70.7,0,0,0,13.67,10.56,8.57,8.57,0,0,0,11.34-2.49l.07-.09a7.68,7.68,0,0,1,7.39-2.94l24.9,3.86a7.82,7.82,0,0,1,6.26,5.29,21.84,21.84,0,0,1,.91,4.17A21.3,21.3,0,0,1,210.6,576.78Z"/><path class="cls-2" d="M202,498.6c-.78-5.59-4.27-10.49-9.84-13.78-9.6-5.68-20-3.5-25.81,5.43a5.32,5.32,0,0,1-4.42,2.45h-7.55a5.9,5.9,0,0,0-5.89,5.88v23.13a5.9,5.9,0,0,0,5.89,5.88,5.2,5.2,0,0,1,5.19,4.92l.35,6.6v.21l16.88-10.9a5.25,5.25,0,0,1,2.82-.83h9.3a5.89,5.89,0,0,0,5.88-5.88v-3.09a5,5,0,0,1,1.36-3.5C200.62,510.37,202.75,504.34,202,498.6Zm-6.35,16a5.69,5.69,0,0,0-1.54,4v3.09a5.21,5.21,0,0,1-5.2,5.2h-9.3a5.83,5.83,0,0,0-3.19.94L160.64,538v0l-.15.1-.29-5.56a5.88,5.88,0,0,0-5.88-5.57,5.2,5.2,0,0,1-5.2-5.2V498.58a5.2,5.2,0,0,1,5.2-5.2h7.55a6,6,0,0,0,5-2.76c5.63-8.6,15.63-10.69,24.89-5.21,5.38,3.18,8.76,7.9,9.51,13.28C202,504.23,200,510.05,195.6,514.65Z"/><path class="cls-2" d="M201.27,498.69c-.75-5.38-4.13-10.1-9.51-13.28-9.26-5.48-19.26-3.39-24.89,5.21a6,6,0,0,1-5,2.76h-7.55a5.2,5.2,0,0,0-5.2,5.2v23.13a5.2,5.2,0,0,0,5.2,5.2,5.88,5.88,0,0,1,5.88,5.57l.29,5.56.15-.1v0l15.73-10.14a5.83,5.83,0,0,1,3.19-.94h9.3a5.21,5.21,0,0,0,5.2-5.2v-3.09a5.69,5.69,0,0,1,1.54-4C200,510.05,202,504.23,201.27,498.69Zm-8.37,3.44A10.37,10.37,0,0,1,184,511a10.05,10.05,0,0,1-1.34.09,10.31,10.31,0,1,1,10.23-9Z"/><path class="cls-2" d="M190,493.5a10.32,10.32,0,1,0-7.29,17.61A10.05,10.05,0,0,0,184,511a10.31,10.31,0,0,0,6-17.52Zm2.26,8.55a9.63,9.63,0,1,1-10.81-10.81,10.49,10.49,0,0,1,1.25-.08,9.66,9.66,0,0,1,9.56,10.89Z"/></svg>